inDegrees=yes
name=ik_coleta2_trike_1hz_mov
DataType=double
version=3
OpenSimVersion=4.4-2022-07-23-0e9fedc
endheader
time	hip_flexion_r	knee_angle_r	hip_flexion_l	knee_angle_l	gearToGround_coord_0
37.46238708496094	99.89580665185244	-72.86699924818629	96.45766862759889	-101.6846251517691	-1826.729806276552
37.46738910675049	99.61679448297456	-72.55181350088179	96.68596437052945	-102.0048999028623	-1827.431682603922
37.47246313095093	99.33676181929856	-72.23695321577726	96.96876814082627	-102.2752361399775	-1828.134479119339
37.47740983963013	99.05609931961536	-71.9228641623879	97.19097707712216	-102.5949556483404	-1828.839498051546
37.48039221763611	98.77419984508626	-71.60890034505942	97.47174547486239	-102.8627980341159	-1829.548039453377
37.48739290237427	98.50360480369082	-71.3089385784485	97.84707132435641	-103.2126424167114	-1830.229305262409
37.49539709091187	98.20634191078	-70.98106479188937	98.01386364522801	-103.4501804817144	-1830.980733552003
37.50238990783691	97.92119573682082	-70.66814760249768	98.23156688454849	-103.7721232519774	-1831.700815440319
37.50744199752808	97.62971936201883	-70.34992342820007	98.5482913880041	-104.0372738055913	-1832.438822678266
37.51539492607117	97.33686031469047	-70.03187820915217	98.91063229614034	-104.3821695757339	-1833.181973180835
37.52142715454102	97.04003870846	-69.71127057421876	99.07520456695927	-104.6315706310378	-1833.935554763442
37.52546501159668	96.74090218406165	-69.38995649109567	99.3688227656224	-104.9264467989537	-1834.697059959305
37.53039288520813	96.43792695914897	-69.06636214695408	99.64135303510571	-105.2315926398299	-1835.470160300642
37.53539085388184	96.12810499505001	-68.73744189656831	99.93321083317218	-105.5401857824773	-1836.263317720424
37.54143810272217	95.81779886821434	-68.41001522687569	100.2309530541284	-105.8513565138548	-1837.061351023982
37.54739499092102	95.50029607447281	-68.07711470392655	100.5490111796536	-106.2297938123282	-1837.878131320355
37.5544159412384	95.19319772065724	-67.75719793715884	100.8421100811482	-106.4445771966475	-1838.668236877368
37.56040215492249	94.85591819006153	-67.40822537046155	101.1762968246233	-106.7651659551867	-1839.544580015578
37.56539511680603	94.52498654945047	-67.06829939400799	101.5084119890935	-107.0744078520276	-1840.408853850518
37.5704300403595	94.19003708424769	-66.7268172323728	101.8692782408832	-107.375370551938	-1841.283799562873
37.57740783691406	93.85358288748908	-66.38638640138892	102.1981716712522	-107.8016516021872	-1842.166711799389
37.58439803123474	93.50695689543235	-66.03860507028675	102.5415722072166	-108.0088594950759	-1843.083894996558
37.59143996238708	93.16066724315058	-65.69406419299321	102.8841025100585	-108.3630543027439	-1844.004687862797
37.59839296340942	92.81056736499417	-65.34880478292602	103.2508376348119	-108.6464530716922	-1844.938042832476
37.60442209243774	92.45524534594502	-65.00164632490019	103.6174165313225	-108.9737581183871	-1845.894532107848
37.6104109287262	92.09880144039867	-64.65678784570864	104.0224427808588	-109.257398153254	-1846.858290194298
37.62143993377686	91.7369572948365	-64.31024965299071	104.4313023548196	-109.572997529861	-1847.846362839129
37.6374409198761	91.36987086813929	-63.96202289135044	104.7964175833737	-109.8827602168519	-1848.848363280763
37.64238500595093	91.01160111526815	-63.68680215043768	105.0857458312098	-110.2022970957327	-1849.650875026879
37.64638304710388	90.65829896359341	-63.55956279761354	105.7904093165879	-110.6379642228066	-1851.374979036818
37.65339517593384	90.2904474499985	-63.22663003543093	106.2049213014274	-110.9424986470309	-1852.43470230868
37.66639494895935	89.92042908123869	-62.89655099584294	106.5896348197706	-111.2635132581182	-1853.513374650479
37.67445492744446	89.54387723647793	-62.5658409367422	107.0160991759389	-111.5715552008837	-1854.612958314145
37.67838597297668	89.17053490059395	-62.24322155500847	107.5367735365432	-111.8509388575896	-1855.729967512904
37.68239188194275	88.78988489776282	-61.92005702827291	107.9310575298746	-112.1291386080143	-1856.870476565399
37.68741393089294	88.40874711601229	-61.60256432751943	108.3436976704522	-112.4789369082075	-1858.031061402211
37.69240212440491	88.02618952267282	-61.29038517699885	108.8247686475859	-112.6992812173215	-1859.216298747401
37.69638800621033	87.63929087764708	-60.98168191422823	109.2808452413747	-112.9807947361973	-1860.42923307849
37.70239186286926	87.25019933662507	-60.6787777032708	109.7387340272747	-113.2877098721836	-1861.672236747497
37.7064471244812	86.85727819418454	-60.38110146758389	110.2267026663434	-113.5372898352695	-1862.948719443719
37.71339297294617	86.45970209118265	-60.08889274592453	110.7317122720132	-113.7866735891162	-1864.265918412304
37.71739196777344	86.05810555217968	-59.80361453469249	111.2373109171568	-114.0444165639279	-1865.624220740043
37.7224440574646	85.65014283032288	-59.52481622775684	111.8335694087517	-114.291014756231	-1867.035836527444
37.72640609741211	85.23740392248999	-59.25503394616429	112.2881817656235	-114.5553649752486	-1868.500153237741
37.73037695884705	84.8130779810361	-58.99178364937735	112.8482451792293	-114.8124311900667	-1870.047054607091
37.73539185523987	84.38095052160484	-58.73995353699376	113.5678608266085	-115.235076727152	-1871.670929487478
37.7404568195343	83.93800957244103	-58.50074790431314	114.0603575395369	-115.1916248097119	-1873.393252728946
37.7453989982605	83.48185403024395	-58.27708933794803	114.6596648253748	-115.4372672108134	-1875.236974723703
37.74939203262329	83.01039883180776	-58.07361222755146	115.3666539249235	-115.7179250302382	-1877.228798935374
37.7534167766571	82.52248839330406	-57.89761893627534	116.0282903426353	-115.7811272467163	-1879.39970543262
37.75941705703735	82.01782204048372	-57.7598444319984	116.8140396026179	-115.9959787467827	-1881.787316311354
37.76539206504822	81.49876842931312	-57.67606573156722	117.5681696716345	-116.0128474897729	-1884.431349637295
37.77642583847046	80.97494196919821	-57.66801766811729	118.396948211052	-115.932320162853	-1887.351855770484
37.78039503097534	80.46704340350797	-57.75940045716715	119.4043025868984	-116.1438204902339	-1890.515064988327
37.78641080856323	80.0043072827428	-57.96453561006966	120.2542579815718	-115.9703796179626	-1893.809788212005
37.7924211025238	79.61425299520796	-58.27542953844081	120.7421115257021	-115.5929693821481	-1897.060714088674
37.79939699172974	79.30680189341517	-58.66521651369717	121.3049712193748	-115.2411447029713	-1900.125307970008
37.80341386795044	79.07549188859079	-59.10388043462567	121.7564225758213	-114.84919159297	-1902.94044902173
37.80746102333069	78.90682628036315	-59.56894918447094	122.1532852115057	-114.4783801195519	-1905.505995264885
37.8123791217804	78.78737588523431	-60.04660032165955	122.47556364316	-114.0902140982011	-1907.849899300589
37.81639385223389	78.7061836486438	-60.52978346048218	122.7299365258443	-113.6827125357992	-1910.008986452908
37.81939005851746	78.65513585777821	-61.01481013637922	122.8994583105548	-113.2520794717016	-1912.015709484607
37.82838892936707	78.6283189064481	-61.49977540777171	123.0288220736979	-112.8196281135044	-1913.89637311782
37.8364200592041	78.6213741442681	-61.98436220156443	123.1113193830554	-112.3828796930552	-1915.674226317462
37.84042000770569	78.63113224742432	-62.46861415325007	123.149409338532	-111.9420635942618	-1917.366713248683
37.84639501571655	78.65524719368088	-62.95326703841469	123.1588128305948	-111.49812131576	-1918.989169529673
37.85139298439026	78.69201907580324	-63.43925680204182	123.1756388277519	-111.0620199413433	-1920.555809228146
37.85645985603333	78.7400710388716	-63.92633021836597	123.1196499256639	-110.6014619193884	-1922.072773171058
37.86240696907043	78.79850958863061	-64.41594586403264	122.9821797185866	-110.0733236453055	-1923.55016663754
37.8683910369873	78.86632770283529	-64.90735122321875	123.1013628459889	-109.7204444176545	-1924.991743874027
37.87245988845825	78.94334736172117	-65.40352664136117	123.042983864823	-109.2541388909675	-1926.409066437987
37.87840604782104	79.02882488993923	-65.90241539411674	122.9350227968692	-108.8076323515969	-1927.79912077823
37.89245676994324	79.12219086043172	-66.40499444942732	122.837967762654	-108.34238371401	-1929.170389413586
37.89740395545959	79.22370218800258	-66.91300122638937	122.6482850935959	-107.8528288370541	-1930.526234139908
37.90239500999451	79.33341261365331	-67.42820381148479	122.4502551041367	-107.3216282009472	-1931.874485333923
37.91238689422607	79.45075666007095	-67.94876829285973	122.4582514566352	-106.9069319539622	-1933.212321758389
37.91639804840088	79.57602521752794	-68.47653294530622	122.3155061037459	-106.3864374172936	-1934.545194965978
37.92244505882263	79.70915766520211	-69.01180612685779	122.1270155736678	-105.9179015351509	-1935.874855365857
37.93139696121216	79.85021034482423	-69.55477238444733	121.9615312600082	-105.3822946247926	-1937.203228900401
37.93537306785583	79.99965971857287	-70.10728661210455	121.754615064659	-104.8856115829073	-1938.535615827109
37.9394199848175	80.1566278445315	-70.66640341640679	121.3433766929293	-104.2354930023644	-1939.865183267143
